# xmcd
#
# Track frame offsets:
#	150
#	14703
#	29238
#	42633
#	57589
#	71198
#	86421
#	102587
#	119301
#	133091
#
# Disc length: 1966 seconds
#
# Revision: 0
# Processed by: cddbd v1.5.2PL0 Copyright (c) Steve Scherf et al.
# Submitted via: EasyCDDAExtractor 16.0.6.1
#
DISCID=9f07ac0a
DTITLE=Ιστορία ρεμπέτικου και λαϊκού 09-3
DYEAR=2007
DGENRE=Ποικίλη
TTITLE0=Περπινιάδης Βαγγέλης - Άσ' τα νάζια βρε Μαρίτσα [Β. Περπινιάδης]
TTITLE1=Περπινιάδης Βαγγέλης - Να μού ζήσεις Κατινάκι [Β. Περπινιάδης-Σ. Περισ
TTITLE1=τέρης]
TTITLE2=Λίντα Μαίρη-Χιώτης Μανώλης - Ηλιοβασιλέματα [Μαν. Χιώτης]
TTITLE3=Δούκισσα-Χιώτης Μανώλης - Σβήσε τη φλόγα [Μαν. Χιώτης]
TTITLE4=Καζαντζίδης Στέλιος - Ίσως αύριο [Βασ. Τσιτσάνης]
TTITLE5=Χρυσάφη Άννα - Η πρώτη αγάπη σου είμαι εγώ [Γ. Μητσάκης]
TTITLE6=Λίντα Μαίρη-Χιώτης Μανώλης - Πάρε με στο τηλέφωνο [Μαν. Χιώτης]
TTITLE7=Λίντα Μαίρη-Χιώτης Μανώλης - Λαός και Κολωνάκι [Μαν. Χιώτης]
TTITLE8=Καζαντζίδης Στέλιος - Απ' τα ψηλά στα χαμηλά[Α.Καλδάρας-Ε.Παπαγιαννοπο
TTITLE8=ύλου]
TTITLE9=Καζαντζίδης Στέλιος - Ποιος θα με πληροφορήσει[Α.Καλδάρας-Ε.Παπαγιαννο
TTITLE9=πούλου]
EXTD=
EXTT0=
EXTT1=
EXTT2=
EXTT3=
EXTT4=
EXTT5=
EXTT6=
EXTT7=
EXTT8=
EXTT9=
PLAYORDER=
